<svg width="135" height="137" viewBox="0 0 135 137" fill="none" xmlns="http://www.w3.org/2000/svg">
<path fill-rule="evenodd" clip-rule="evenodd" d="M30.4512 8.47617L47.9291 0.743547C48.7016 0.401745 49.5817 0.388478 50.3757 0.706667C51.1697 1.02486 51.8126 1.64844 52.1629 2.44022L66.2153 34.2027L78.1854 2.04025C78.4855 1.244 79.0852 0.606358 79.8539 0.266294C80.6225 -0.0737672 81.4978 -0.0886943 82.2889 0.224768L100.255 7.42456C100.648 7.57979 101.008 7.8121 101.314 8.10805C101.621 8.404 101.868 8.75772 102.041 9.14878C102.214 9.53984 102.31 9.96048 102.322 10.3864C102.335 10.8123 102.265 11.235 102.116 11.6301L90.1456 43.7926L121.137 30.0813C121.518 29.9106 121.93 29.8187 122.349 29.811C122.769 29.8033 123.186 29.8799 123.579 30.0363C123.972 30.1927 124.332 30.426 124.639 30.7226C124.945 31.0193 125.192 31.3735 125.365 31.765L133.29 49.6776C133.64 50.4694 133.67 51.3645 133.371 52.1661C133.072 52.9677 132.471 53.61 131.698 53.9518L100.706 67.6632L132.552 80.4252C132.945 80.5804 133.305 80.8127 133.612 81.1086C133.918 81.4046 134.165 81.7583 134.338 82.1494C134.511 82.5404 134.607 82.9611 134.62 83.387C134.632 83.8129 134.562 84.2356 134.413 84.6307L127.656 102.768C127.511 103.165 127.289 103.527 127.003 103.833C126.718 104.14 126.374 104.384 125.993 104.553C125.611 104.722 125.199 104.811 124.78 104.817C124.362 104.822 123.944 104.743 123.553 104.584L91.7073 91.8218L105.76 123.584C106.11 124.376 106.139 125.271 105.841 126.073C105.542 126.874 104.94 127.517 104.168 127.859L86.6897 135.591C85.9178 135.929 85.0403 135.939 84.2492 135.62C83.4581 135.301 82.8179 134.678 82.4686 133.889L68.4161 102.126L56.4277 134.281C56.2821 134.678 56.0601 135.04 55.7746 135.346C55.489 135.653 55.1455 135.897 54.7639 136.066C54.3824 136.235 53.9703 136.325 53.5515 136.33C53.1328 136.335 52.7156 136.256 52.3242 136.097L34.3581 128.897C33.5693 128.577 32.9311 127.956 32.5826 127.168C32.2341 126.381 32.2035 125.49 32.4974 124.692L44.4859 92.5365L13.4943 106.248C13.1117 106.417 12.6988 106.507 12.279 106.514C11.8592 106.52 11.4408 106.442 11.0476 106.285C10.6545 106.127 10.2943 105.893 9.98767 105.596C9.68103 105.298 9.43393 104.943 9.26047 104.551L1.33551 86.6385C0.989545 85.8475 0.963441 84.955 1.26291 84.1564C1.56237 83.3578 2.16302 82.7181 2.9334 82.3773L33.925 68.6659L2.06097 55.8966C1.27218 55.5769 0.633989 54.9555 0.285466 54.1677C-0.0630572 53.38 -0.093659 52.4897 0.20033 51.691L6.9566 33.5535C7.25674 32.7572 7.85648 32.1196 8.62512 31.7795C9.39377 31.4394 10.269 31.4245 11.0601 31.738L42.9241 44.5073L28.8717 12.7448C28.6968 12.3541 28.599 11.9335 28.5838 11.5072C28.5686 11.0809 28.6363 10.6573 28.783 10.2607C28.9298 9.86406 29.1527 9.50225 29.439 9.19601C29.7252 8.88977 30.0692 8.64514 30.4512 8.47617Z" fill="white" fill-opacity="0.2"/>
</svg>
