<svg width="44" height="38" viewBox="0 0 44 38" fill="none" xmlns="http://www.w3.org/2000/svg">
<g clip-path="url(#clip0_1_106)">
<path d="M2.34329 20.443H41.6567C42.2593 20.4138 42.8275 20.1546 43.2436 19.7189C43.6598 19.2833 43.8919 18.7047 43.8919 18.1029C43.8919 17.5012 43.6598 16.9226 43.2436 16.4869C42.8275 16.0513 42.2593 15.792 41.6567 15.7629H2.34329C1.72181 15.7629 1.12579 16.0092 0.686335 16.4475C0.246882 16.8858 0 17.4803 0 18.1002C0 18.7201 0.246882 19.3146 0.686335 19.7529C1.12579 20.1912 1.72181 20.4375 2.34329 20.4375V20.443Z" fill="#6F9AFA"/>
<path d="M1.47968 21.6006H42.5203V24.0367H1.47968V21.6006Z" fill="#6F9AFA"/>
<path d="M3.30041 14.6107H40.7051C41.1821 14.6107 41.6397 14.4217 41.977 14.0853C42.3143 13.7488 42.5038 13.2925 42.5038 12.8166C42.498 9.42113 41.1439 6.16619 38.7377 3.76418C36.3316 1.36216 33.0694 0.00870149 29.6652 0L14.3348 0C10.9277 0.0043519 7.66132 1.35589 5.25162 3.75838C2.84192 6.16086 1.48551 9.41828 1.47968 12.8166C1.4804 13.0539 1.52814 13.2887 1.62017 13.5074C1.71219 13.7262 1.84668 13.9247 2.0159 14.0914C2.18512 14.2582 2.38572 14.3899 2.60617 14.479C2.82662 14.5681 3.06256 14.6129 3.30041 14.6107ZM33.7027 8.17499C33.9942 7.8842 34.7038 8.1311 35.2924 8.72365C35.881 9.3162 36.1285 10.024 35.8425 10.3093C35.5564 10.5946 34.8359 10.3532 34.2418 9.76061C33.6477 9.16806 33.4222 8.46578 33.6917 8.17499H33.7027ZM30.9524 2.68842C31.5409 2.10136 32.256 1.85446 32.5531 2.13976C32.8501 2.42507 32.5971 3.13832 32.003 3.72538C31.4089 4.31245 30.6993 4.55934 30.4133 4.27404C30.1273 3.98874 30.3583 3.28097 30.9634 2.68842H30.9524ZM30.5783 11.5218C31.1669 12.1089 31.4144 12.8221 31.1284 13.1074C30.8424 13.3927 30.1273 13.1513 29.5387 12.5588C28.9501 11.9662 28.7026 11.2584 28.9886 10.9731C29.2747 10.6878 29.9897 10.9183 30.5783 11.5218ZM27.1789 6.96795C27.7675 6.38088 28.4826 6.13399 28.7686 6.41929C29.0546 6.70459 28.8126 7.41785 28.2185 8.00491C27.6245 8.59197 26.9149 8.83887 26.6288 8.55357C26.3428 8.26826 26.5903 7.5605 27.1789 6.96795ZM23.0589 3.86803C23.653 3.29194 24.3625 3.03956 24.6486 3.33035C24.9346 3.62114 24.6926 4.32891 24.0985 4.91597C23.5044 5.50303 22.7948 5.74993 22.5088 5.46463C22.2228 5.17932 22.4648 4.4551 23.0589 3.86803ZM22.6298 11.5218C23.2184 10.9347 23.9335 10.6878 24.2195 10.9731C24.5056 11.2584 24.269 11.9717 23.6695 12.5588C23.0699 13.1458 22.3658 13.3927 22.0688 13.1074C21.7717 12.8221 22.0248 12.1089 22.6188 11.5218H22.6298ZM17.3767 6.44124C17.6682 6.14496 18.3778 6.39186 18.9664 6.98989C19.5549 7.58793 19.8025 8.29021 19.5164 8.57551C19.2304 8.86081 18.5098 8.62489 17.9267 8.02686C17.3437 7.42882 17.0851 6.72105 17.3767 6.43026V6.44124ZM16.6396 12.6685C16.348 12.9593 15.6385 12.7124 15.0499 12.1198C14.4613 11.5273 14.2138 10.8195 14.4998 10.5342C14.7858 10.2489 15.5009 10.4903 16.0895 11.0829C16.6781 11.6754 16.9311 12.3832 16.6396 12.6685ZM14.4888 3.3907C15.0774 2.80364 15.7925 2.55674 16.0785 2.84204C16.3645 3.12735 16.1225 3.8406 15.5284 4.42766C14.9344 5.01473 14.2193 5.26162 13.9277 4.97632C13.6362 4.69102 13.8837 3.97776 14.4778 3.3907H14.4888ZM10.4513 12.0705C10.1598 12.3612 9.45018 12.1144 8.86161 11.5218C8.27303 10.9293 8.0255 10.2215 8.31154 9.93618C8.59757 9.65088 9.35117 9.87583 9.90124 10.4629C10.4513 11.05 10.7373 11.7632 10.4513 12.054V12.0705ZM8.69659 5.87063C9.28516 5.28906 10.0002 5.04216 10.2863 5.32198C10.5723 5.60179 10.3303 6.32053 9.73622 6.90759C9.14214 7.49466 8.42705 7.74155 8.13552 7.45625C7.84398 7.17095 8.09701 6.4577 8.68559 5.86515L8.69659 5.87063Z" fill="#6F9AFA"/>
<path d="M42.5203 31.1912C42.051 31.5958 41.658 32.0807 41.3597 32.6232C40.9526 33.4242 40.2595 34.7574 38.8679 34.7574C37.4762 34.7574 36.8106 33.4681 36.244 32.3708C36.0134 31.8474 35.7117 31.3582 35.3474 30.9168C35.2645 30.8118 35.1589 30.727 35.0383 30.6686C34.9178 30.6102 34.7856 30.5799 34.6516 30.5799C34.5176 30.5799 34.3854 30.6102 34.2648 30.6686C34.1443 30.727 34.0386 30.8118 33.9557 30.9168C33.5857 31.3551 33.2818 31.8449 33.0536 32.3708C32.5036 33.4681 31.838 34.7794 30.4243 34.7794C29.0106 34.7794 28.367 33.4681 27.8005 32.3708C27.5699 31.8474 27.2682 31.3582 26.9039 30.9168C26.821 30.8118 26.7153 30.727 26.5948 30.6686C26.4742 30.6102 26.342 30.5799 26.208 30.5799C26.074 30.5799 25.9418 30.6102 25.8213 30.6686C25.7008 30.727 25.5951 30.8118 25.5122 30.9168C25.1422 31.3551 24.8382 31.8449 24.6101 32.3708C24.06 33.501 23.3999 34.7794 21.9862 34.7794C20.5726 34.7794 19.929 33.4681 19.3624 32.3708C19.1318 31.8474 18.8301 31.3582 18.4658 30.9168C18.3829 30.8118 18.2772 30.727 18.1567 30.6686C18.0362 30.6102 17.904 30.5799 17.77 30.5799C17.636 30.5799 17.5038 30.6102 17.3832 30.6686C17.2627 30.727 17.157 30.8118 17.0741 30.9168C16.7041 31.3551 16.4002 31.8449 16.172 32.3708C15.622 33.501 14.9619 34.7794 13.5482 34.7794C12.1345 34.7794 11.4909 33.4681 10.9244 32.3708C10.6938 31.8474 10.3921 31.3582 10.0278 30.9168C9.94487 30.8118 9.83919 30.727 9.71866 30.6686C9.59813 30.6102 9.4659 30.5799 9.33192 30.5799C9.19794 30.5799 9.0657 30.6102 8.94517 30.6686C8.82464 30.727 8.71896 30.8118 8.63608 30.9168C8.26604 31.3551 7.96213 31.8449 7.73397 32.3708C7.1839 33.501 6.52382 34.7794 5.11014 34.7794C3.69646 34.7794 3.05838 33.4681 2.62383 32.6232C2.33154 32.0735 1.93775 31.584 1.46318 31.1802V32.7494C1.46464 34.1415 2.01972 35.4761 3.00663 36.4605C3.99353 37.4449 5.33165 37.9986 6.72734 38H37.2397C38.6353 37.9986 39.9735 37.4449 40.9604 36.4605C41.9473 35.4761 42.5024 34.1415 42.5038 32.7494V31.1912H42.5203Z" fill="#6F9AFA"/>
<path d="M1.16615 29.5013C2.22714 30.1203 3.09537 31.0205 3.67446 32.1019C4.17502 33.084 4.55457 33.6107 5.12664 33.6107C5.69871 33.6107 6.16077 32.9194 6.71084 31.8221C6.98734 31.1886 7.35824 30.6004 7.81098 30.0774C8.0075 29.867 8.24617 29.7001 8.51151 29.5877C8.77684 29.4752 9.06291 29.4196 9.35117 29.4245C9.63757 29.426 9.92061 29.4862 10.1827 29.6013C10.4448 29.7165 10.6804 29.8841 10.8749 30.0938C11.3276 30.6168 11.6985 31.205 11.975 31.8386C12.5251 32.9359 12.9156 33.6107 13.5592 33.6107C14.2028 33.6107 14.5933 32.9194 15.1489 31.8221C15.4232 31.1874 15.7943 30.5989 16.249 30.0774C16.4416 29.8667 16.676 29.6984 16.9374 29.5832C17.1988 29.4679 17.4814 29.4083 17.7672 29.408C18.0536 29.4095 18.3367 29.4697 18.5988 29.5849C18.8609 29.7 19.0965 29.8676 19.2909 30.0774C19.7436 30.6004 20.1145 31.1886 20.3911 31.8221C20.9411 32.9194 21.3317 33.5943 21.9752 33.5943C22.6188 33.5943 23.0259 32.9194 23.5759 31.8221C23.8525 31.1886 24.2234 30.6004 24.6761 30.0774C24.8687 29.8667 25.1031 29.6984 25.3645 29.5832C25.6259 29.4679 25.9085 29.4083 26.1943 29.408C26.4807 29.4095 26.7637 29.4697 27.0258 29.5849C27.2879 29.7 27.5235 29.8676 27.718 30.0774C28.1707 30.6004 28.5416 31.1886 28.8181 31.8221C29.3682 32.9194 29.7587 33.5943 30.4023 33.5943C31.0459 33.5943 31.4584 32.9194 32.025 31.8221C32.2993 31.1874 32.6704 30.5989 33.1251 30.0774C33.3204 29.8684 33.5573 29.7023 33.8206 29.5899C34.084 29.4775 34.3679 29.4211 34.6543 29.4245C34.9407 29.426 35.2238 29.4862 35.4859 29.6013C35.748 29.7165 35.9836 29.8841 36.178 30.0938C36.6308 30.6168 37.0017 31.205 37.2782 31.8386C37.8282 32.9359 38.2188 33.6107 38.8624 33.6107C39.5059 33.6107 39.825 33.0621 40.32 32.1019C40.9142 31.0182 41.7902 30.1141 42.8559 29.4848C42.9899 29.4026 43.1152 29.307 43.2299 29.1995C43.4641 29.0013 43.6542 28.7563 43.7878 28.4804C43.9213 28.2045 43.9955 27.9037 44.0055 27.5974C44.0066 27.3126 43.9496 27.0305 43.8381 26.7683C43.7265 26.5061 43.5626 26.2693 43.3564 26.0722C43.0714 25.7897 42.7332 25.5662 42.3612 25.4146C41.9893 25.263 41.5909 25.1863 41.1892 25.1888H2.68434C1.97619 25.1749 1.28878 25.4276 0.759095 25.8966C0.524284 26.1028 0.335415 26.3559 0.204668 26.6394C0.0739211 26.9229 0.00419953 27.2305 0 27.5426C0.00700912 27.942 0.118239 28.3327 0.322728 28.6761C0.527217 29.0196 0.817906 29.304 1.16615 29.5013Z" fill="#6F9AFA"/>
</g>
<defs>
<clipPath id="clip0_1_106">
<rect width="44" height="38" fill="white"/>
</clipPath>
</defs>
</svg>
