<svg xmlns="http://www.w3.org/2000/svg" viewBox="0 0 59 48.47"><g id="Слой_1" data-name="Слой 1"><path d="M3.16,6.32A3.16,3.16,0,0,1,0,3.16H0A3.16,3.16,0,0,1,3.16,0H55.84A3.15,3.15,0,0,1,59,3.16h0a3.15,3.15,0,0,1-3.16,3.16H3.16Z"/><path d="M3.16,27.39A3.15,3.15,0,0,1,0,24.23H0a3.16,3.16,0,0,1,3.16-3.16H55.84A3.17,3.17,0,0,1,59,24.23h0a3.16,3.16,0,0,1-3.16,3.16H3.16Z"/><path d="M3.16,48.47A3.16,3.16,0,0,1,0,45.3H0a3.16,3.16,0,0,1,3.16-3.16H55.84A3.16,3.16,0,0,1,59,45.3h0a3.16,3.16,0,0,1-3.16,3.17H3.16Z"/></g></svg>