<svg width="23" height="20" viewBox="0 0 23 20" fill="none" xmlns="http://www.w3.org/2000/svg">
<path d="M23 6.99915C22.999 8.28547 22.5335 9.52837 21.6888 10.5001C20.8442 11.4719 19.6769 12.1075 18.4008 12.2905V15.411H4.60328V12.2905C3.2599 12.0989 2.03929 11.4062 1.18759 10.3521C0.335887 9.29795 -0.0835565 7.96081 0.013836 6.61028C0.111229 5.25975 0.718212 3.99629 1.71239 3.07468C2.70658 2.15307 4.014 1.64186 5.37104 1.64413C5.50104 1.64413 5.63104 1.64413 5.76105 1.65882C5.43897 2.1355 5.18085 2.65223 4.99329 3.19581C4.73435 3.92599 4.60244 4.69496 4.60328 5.46949C4.61436 5.66486 4.69995 5.84859 4.84248 5.98298C4.98502 6.11738 5.1737 6.19226 5.36981 6.19226C5.56592 6.19226 5.7546 6.11738 5.89714 5.98298C6.03967 5.84859 6.12526 5.66486 6.13634 5.46949C6.12107 4.75679 6.24856 4.04822 6.51135 3.38533C6.77414 2.72244 7.16694 2.11857 7.6667 1.60914C8.16647 1.09971 8.76314 0.694968 9.42174 0.41865C10.0803 0.142332 10.7876 0 11.5021 0C12.2165 0 12.9238 0.142332 13.5824 0.41865C14.241 0.694968 14.8376 1.09971 15.3374 1.60914C15.8372 2.11857 16.23 2.72244 16.4927 3.38533C16.7555 4.04822 16.883 4.75679 16.8678 5.46949C16.8788 5.66486 16.9644 5.84859 17.107 5.98298C17.2495 6.11738 17.4382 6.19226 17.6343 6.19226C17.8304 6.19226 18.0191 6.11738 18.1616 5.98298C18.3042 5.84859 18.3897 5.66486 18.4008 5.46949C18.4017 4.69496 18.2698 3.92599 18.0108 3.19581C17.8222 2.65266 17.5642 2.13606 17.2431 1.65882C17.3731 1.65882 17.5031 1.64413 17.6355 1.64413C19.0581 1.64608 20.4218 2.21097 21.4275 3.21487C22.4332 4.21878 22.9987 5.57973 23 6.99915ZM4.60328 19.2364C4.60457 19.4389 4.68595 19.6328 4.82972 19.7758C4.9735 19.9188 5.16804 19.9994 5.37104 20H17.6355C17.8381 19.9987 18.032 19.9179 18.1752 19.7749C18.3185 19.632 18.3995 19.4385 18.4008 19.2364V16.9407H4.60328V19.2364Z" fill="white"/>
</svg>
