<svg id="Слой_1" data-name="Слой 1" xmlns="http://www.w3.org/2000/svg" viewBox="0 0 93.75 81.25"><path d="M93.75,28.13A21.86,21.86,0,0,1,75,49.75V62.5H18.75V49.75a21.86,21.86,0,0,1,3.13-43.5c.53,0,1.06,0,1.59.06a26.9,26.9,0,0,0-3.13,6.28,27.76,27.76,0,0,0-1.59,9.29,3.13,3.13,0,0,0,6.25,0,21.88,21.88,0,1,1,43.75,0,3.13,3.13,0,0,0,6.25,0,27.76,27.76,0,0,0-1.59-9.29,27.3,27.3,0,0,0-3.13-6.28c.53,0,1.06-.06,1.6-.06A21.9,21.9,0,0,1,93.75,28.13Zm-75,50a3.14,3.14,0,0,0,3.13,3.12h50A3.14,3.14,0,0,0,75,78.13V68.75H18.75Z"/></svg>