<svg width="44" height="44" viewBox="0 0 44 44" fill="none" xmlns="http://www.w3.org/2000/svg">
<g clip-path="url(#clip0_1_113)">
<path d="M17.2562 12.0757C16.5742 12.0757 15.9075 12.2777 15.3402 12.6562C14.7729 13.0347 14.3304 13.5728 14.0686 14.2025C13.8068 14.8323 13.7373 15.5254 13.8691 16.1946C14.0008 16.8637 14.3278 17.4789 14.8087 17.9624C15.2897 18.4459 15.9031 18.7761 16.5715 18.9114C17.24 19.0466 17.9335 18.9809 18.5646 18.7224C19.1957 18.4639 19.7361 18.0243 20.1176 17.459C20.4992 16.8937 20.7047 16.2281 20.7083 15.5461C20.7101 15.0914 20.6222 14.6408 20.4496 14.2201C20.2769 13.7994 20.023 13.4169 19.7023 13.0946C19.3817 12.7722 19.0005 12.5162 18.5808 12.3414C18.161 12.1666 17.7109 12.0763 17.2562 12.0757Z" fill="#6F9AFA"/>
<path d="M23.3191 21.5679C25.3127 21.5679 25.9437 23.5569 25.9483 23.566C25.984 23.6738 26.0406 23.7735 26.1148 23.8594C26.1891 23.9453 26.2795 24.0158 26.381 24.0667C26.4825 24.1177 26.593 24.1481 26.7063 24.1564C26.8195 24.1646 26.9333 24.1504 27.041 24.1147C27.1488 24.079 27.2485 24.0224 27.3344 23.9481C27.4203 23.8739 27.4908 23.7834 27.5417 23.682C27.5927 23.5805 27.6231 23.47 27.6314 23.3567C27.6396 23.2435 27.6255 23.1297 27.5897 23.0219C27.5897 23.0219 26.6753 19.8213 23.3191 19.8213C23.2007 19.8126 23.0817 19.8285 22.9696 19.8679C22.8576 19.9073 22.7549 19.9694 22.6679 20.0503C22.5809 20.1311 22.5115 20.2291 22.4641 20.338C22.4166 20.4469 22.3921 20.5644 22.3921 20.6832C22.3921 20.8019 22.4166 20.9194 22.4641 21.0283C22.5115 21.1372 22.5809 21.2352 22.6679 21.316C22.7549 21.3969 22.8576 21.459 22.9696 21.4984C23.0817 21.5378 23.2007 21.5537 23.3191 21.545V21.5679Z" fill="#6F9AFA"/>
<path d="M16.3417 25.2944C16.2612 25.3739 16.1973 25.4686 16.1538 25.573C16.1102 25.6774 16.0877 25.7894 16.0877 25.9025C16.0877 26.0156 16.1102 26.1276 16.1538 26.232C16.1973 26.3364 16.2612 26.4311 16.3417 26.5106C17.75 27.9235 16.7989 29.7799 16.7989 29.789C16.7474 29.8903 16.7166 30.0008 16.7083 30.1141C16.7 30.2275 16.7143 30.3413 16.7505 30.449C16.7867 30.5567 16.844 30.6561 16.919 30.7414C16.9941 30.8267 17.0854 30.8962 17.1876 30.9458C17.3928 31.0461 17.6292 31.0616 17.8457 30.9888C18.0622 30.9161 18.2414 30.761 18.3444 30.5572C18.3444 30.5572 19.9539 27.6766 17.5671 25.2944C17.4876 25.2139 17.3929 25.15 17.2885 25.1065C17.1841 25.0629 17.0721 25.0404 16.959 25.0404C16.8458 25.0404 16.7338 25.0629 16.6294 25.1065C16.5251 25.15 16.4304 25.2139 16.3508 25.2944H16.3417Z" fill="#6F9AFA"/>
<path d="M11.3212 34.8644C10.9151 35.2677 10.3931 35.5339 9.82816 35.6257C9.26325 35.7175 8.68376 35.6304 8.17084 35.3765L8.04739 35.3125C7.94522 35.2546 7.83233 35.2182 7.71562 35.2054C7.5989 35.1926 7.48081 35.2038 7.36854 35.2381C7.25627 35.2725 7.15219 35.3294 7.06264 35.4053C6.97309 35.4813 6.89995 35.5747 6.84769 35.6798C6.79543 35.785 6.76514 35.8996 6.75868 36.0169C6.75222 36.1341 6.76971 36.2514 6.81009 36.3617C6.85048 36.4719 6.9129 36.5728 6.99356 36.6581C7.07422 36.7434 7.17142 36.8114 7.27923 36.8579L7.40268 36.9174C8.23832 37.3368 9.18505 37.4818 10.1079 37.3315C11.0308 37.1813 11.8826 36.7435 12.542 36.0806C12.7033 35.9187 12.7937 35.6994 12.7933 35.4709C12.7928 35.2424 12.7016 35.0234 12.5397 34.8621C12.3779 34.7008 12.1585 34.6104 11.93 34.6109C11.7015 34.6113 11.4825 34.7025 11.3212 34.8644Z" fill="#6F9AFA"/>
<path d="M12.8027 7.2229e-06C12.614 -0.000766256 12.4302 0.0606021 12.2798 0.174641C12.1294 0.288679 12.0208 0.449048 11.9706 0.630995L0.0320765 42.9026C-0.00932483 43.0503 -0.0106723 43.2064 0.0281725 43.3548C0.0670173 43.5031 0.144655 43.6385 0.253112 43.747C0.36157 43.8554 0.49694 43.9331 0.645322 43.9719C0.793704 44.0107 0.949751 44.0094 1.09744 43.968L43.3691 32.0432C43.5503 31.9932 43.7101 31.8852 43.824 31.7358C43.938 31.5863 43.9998 31.4036 44.0001 31.2156C44.0013 27.1175 43.1953 23.0593 41.6281 19.2727C40.061 15.4861 37.7633 12.0453 34.8664 9.14664C31.9694 6.248 28.5299 3.94834 24.7442 2.37896C20.9586 0.809576 16.9008 0.00120795 12.8027 7.2229e-06ZM4.78735 32.4045C5.56975 32.697 6.40434 32.8241 7.23837 32.7777C8.0724 32.7314 8.88774 32.5125 9.63287 32.1349C10.378 31.7574 11.0367 31.2294 11.5674 30.5844C12.0981 29.9393 12.4892 29.1911 12.7161 28.3872C12.9429 27.5833 13.0005 26.741 12.8853 25.9137C12.7701 25.0864 12.4845 24.2919 12.0466 23.5806C11.6087 22.8693 11.028 22.2565 10.3412 21.781C9.65448 21.3055 8.87654 20.9776 8.0566 20.818C9.35973 16.2045 10.64 11.6733 11.6276 8.15713C17.6837 9.17903 23.2712 12.0616 27.614 16.4044C31.9568 20.7472 34.8393 26.3347 35.8612 32.3907L32.6606 33.3052C32.4932 32.4924 32.1601 31.7228 31.6821 31.0444C31.2042 30.3661 30.5915 29.7935 29.8824 29.3624C29.1734 28.9312 28.3831 28.6509 27.5608 28.5387C26.7386 28.4266 25.902 28.4851 25.1034 28.7106C24.3048 28.936 23.5612 29.3237 22.919 29.8493C22.2768 30.3749 21.7498 31.0272 21.3709 31.7655C20.992 32.5038 20.7693 33.3122 20.7166 34.1404C20.664 34.9686 20.7826 35.7987 21.065 36.579L2.11251 41.8876L4.78735 32.4045Z" fill="#6F9AFA"/>
</g>
<defs>
<clipPath id="clip0_1_113">
<rect width="44" height="44" fill="white"/>
</clipPath>
</defs>
</svg>
