<svg width="29" height="30" viewBox="0 0 29 30" fill="none" xmlns="http://www.w3.org/2000/svg">
<g clip-path="url(#clip0_1_12)">
<path d="M27.397 18.8211C26.9719 18.8211 26.5641 18.9919 26.2635 19.2958C25.9629 19.5997 25.794 20.012 25.794 20.4418V24.4034C25.7935 24.7132 25.7327 25.0198 25.615 25.3058C25.4973 25.5918 25.3251 25.8516 25.1081 26.0703C24.8911 26.2891 24.6336 26.4624 24.3504 26.5805C24.0671 26.6986 23.7636 26.7592 23.4572 26.7587H19.5388C19.1136 26.7587 18.7059 26.9295 18.4053 27.2334C18.1046 27.5373 17.9358 27.9495 17.9358 28.3794C17.9358 28.8092 18.1046 29.2214 18.4053 29.5253C18.7059 29.8293 19.1136 30 19.5388 30H23.4572C24.9269 29.9991 26.3362 29.4083 27.3755 28.3576C28.4148 27.3069 28.9991 25.8821 29 24.3962V20.4346C28.9963 20.0066 28.8259 19.5973 28.5259 19.2953C28.2259 18.9934 27.8203 18.823 27.397 18.8211Z" fill="white"/>
<path d="M9.46125 26.7587H5.54281C4.92305 26.7587 4.32867 26.5098 3.89043 26.0667C3.45219 25.6237 3.20599 25.0228 3.20599 24.3962V20.4346C3.20599 20.0048 3.03711 19.5925 2.73649 19.2886C2.43587 18.9847 2.02814 18.8139 1.603 18.8139C1.17786 18.8139 0.770127 18.9847 0.469507 19.2886C0.168887 19.5925 0 20.0048 0 20.4346L0 24.3962C0.000467388 25.1328 0.14451 25.8622 0.423896 26.5426C0.703282 27.223 1.11254 27.841 1.62827 28.3614C2.14401 28.8819 2.75612 29.2944 3.42963 29.5756C4.10313 29.8567 4.82484 30.001 5.55349 30H9.47193C9.89707 30 10.3048 29.8293 10.6054 29.5253C10.906 29.2214 11.0749 28.8092 11.0749 28.3794C11.0749 27.9495 10.906 27.5373 10.6054 27.2334C10.3048 26.9295 9.89707 26.7587 9.47193 26.7587H9.46125Z" fill="white"/>
<path d="M1.61368 11.1861C2.03668 11.1823 2.44113 11.01 2.73924 10.7066C3.03735 10.4031 3.20507 9.9931 3.20599 9.56543V5.60384C3.20599 5.29268 3.26679 4.98458 3.38489 4.69723C3.50299 4.40989 3.67608 4.14896 3.89421 3.92944C4.11233 3.70991 4.3712 3.53612 4.65595 3.41802C4.9407 3.29993 5.24572 3.23987 5.55349 3.2413H9.47193C9.89707 3.2413 10.3048 3.07055 10.6054 2.76662C10.906 2.46269 11.0749 2.05047 11.0749 1.62065C11.0749 1.19083 10.906 0.778607 10.6054 0.474677C10.3048 0.170746 9.89707 0 9.47193 0L5.55349 0C4.08123 -3.06209e-07 2.66922 0.591047 1.62784 1.64322C0.58646 2.69539 0.000944363 4.12257 0 5.61104L0 9.57263C0.00188404 10.0012 0.171602 10.4116 0.472018 10.7139C0.772435 11.0163 1.17909 11.1861 1.603 11.1861H1.61368Z" fill="white"/>
<path d="M23.4572 0H19.5388C19.1136 0 18.7059 0.170746 18.4053 0.474677C18.1046 0.778607 17.9358 1.19083 17.9358 1.62065C17.9358 2.05047 18.1046 2.46269 18.4053 2.76662C18.7059 3.07055 19.1136 3.2413 19.5388 3.2413H23.4572C24.077 3.2413 24.6713 3.49021 25.1096 3.93327C25.5478 4.37633 25.794 4.97726 25.794 5.60384V9.56543C25.794 9.99525 25.9629 10.4075 26.2635 10.7114C26.5641 11.0153 26.9719 11.1861 27.397 11.1861C27.8221 11.1861 28.2299 11.0153 28.5305 10.7114C28.8311 10.4075 29 9.99525 29 9.56543V5.60384C28.9991 4.1179 28.4148 2.6931 27.3755 1.64238C26.3362 0.591663 24.9269 0.000954054 23.4572 0Z" fill="white"/>
<path d="M12.2896 15.4646H6.15195C5.72738 15.4665 5.32074 15.6378 5.02053 15.9414C4.72031 16.2449 4.55082 16.656 4.54895 17.0852V23.2869C4.54989 23.7164 4.71908 24.1281 5.0195 24.4318C5.31991 24.7356 5.7271 24.9066 6.15195 24.9076H12.2896C12.7145 24.9066 13.1217 24.7356 13.4221 24.4318C13.7225 24.1281 13.8917 23.7164 13.8926 23.2869V17.0852C13.8917 16.6557 13.7225 16.244 13.4221 15.9403C13.1217 15.6366 12.7145 15.4655 12.2896 15.4646ZM10.6866 21.6699H7.75494V18.7059H10.6866V21.6699Z" fill="white"/>
<path d="M24.362 23.2869V17.0852C24.362 16.6554 24.1931 16.2432 23.8925 15.9393C23.5919 15.6353 23.1841 15.4646 22.759 15.4646H16.6248C16.1997 15.4646 15.792 15.6353 15.4914 15.9393C15.1907 16.2432 15.0219 16.6554 15.0219 17.0852V23.2869C15.0228 23.7164 15.192 24.1281 15.4924 24.4318C15.7928 24.7356 16.2 24.9066 16.6248 24.9076H22.7447C22.9566 24.9099 23.1668 24.8698 23.3631 24.7893C23.5595 24.7089 23.738 24.5899 23.8885 24.4391C24.039 24.2883 24.1583 24.1088 24.2396 23.911C24.3209 23.7132 24.3625 23.5011 24.362 23.2869ZM21.156 21.6663H18.2278V18.7059H21.156V21.6663Z" fill="white"/>
<path d="M12.2896 4.84033H6.15195C5.72738 4.84223 5.32074 5.01358 5.02053 5.3171C4.72031 5.62062 4.55082 6.03174 4.54895 6.46098V12.6663C4.55082 13.0955 4.72031 13.5066 5.02053 13.8101C5.32074 14.1137 5.72738 14.285 6.15195 14.2869H12.2896C12.7145 14.286 13.1217 14.1149 13.4221 13.8112C13.7225 13.5075 13.8917 13.0958 13.8926 12.6663V6.46098C13.8917 6.03145 13.7225 5.61978 13.4221 5.31606C13.1217 5.01234 12.7145 4.84128 12.2896 4.84033ZM10.6866 11.042H7.75494V8.08163H10.6866V11.042Z" fill="white"/>
<path d="M19.1398 11.3913C19.1398 13.0876 16.6248 13.0876 16.6248 11.3913C16.6248 9.69507 19.1398 9.69507 19.1398 11.3913Z" fill="white"/>
<path d="M19.1398 7.73589C19.1398 9.43217 16.6248 9.43217 16.6248 7.73589C16.6248 6.03961 19.1398 6.03961 19.1398 7.73589Z" fill="white"/>
<path d="M22.7447 11.4022C22.7416 11.1079 22.6376 10.8239 22.4504 10.5985C22.2633 10.3731 22.0046 10.2203 21.7185 10.1662C21.4324 10.1121 21.1366 10.1601 20.8815 10.3019C20.6264 10.4436 20.4279 10.6705 20.3198 10.9437C20.2117 11.217 20.2007 11.5196 20.2887 11.8001C20.3767 12.0807 20.5582 12.3216 20.8023 12.4819C21.0464 12.6423 21.3379 12.712 21.6272 12.6793C21.9164 12.6466 22.1855 12.5134 22.3885 12.3025C22.5039 12.1838 22.5948 12.043 22.656 11.8885C22.7171 11.7339 22.7473 11.5686 22.7447 11.4022Z" fill="white"/>
</g>
<defs>
<clipPath id="clip0_1_12">
<rect width="29" height="30" fill="white"/>
</clipPath>
</defs>
</svg>
