<svg width="44" height="44" viewBox="0 0 44 44" fill="none" xmlns="http://www.w3.org/2000/svg">
<g clip-path="url(#clip0_1_123)">
<path d="M3.84686 29.9694C3.95633 29.8539 4.0347 29.7115 4.07433 29.5558C4.11395 29.4002 4.11349 29.2368 4.07298 29.0814C4.03246 28.926 3.95328 28.784 3.84316 28.6692C3.73303 28.5544 3.59571 28.4708 3.44457 28.4264L2.38354 29.7276C2.44944 29.8589 2.54458 29.9725 2.6613 30.0592C2.77801 30.1459 2.91303 30.2034 3.05545 30.2269C3.19787 30.2504 3.3437 30.2394 3.48117 30.1947C3.61865 30.1499 3.74391 30.0728 3.84686 29.9694Z" fill="#6F9AFA"/>
<path d="M0.306732 34.5623C1.36111 36.459 2.65072 38.2085 4.14353 39.7672C5.67147 41.3031 7.387 42.6308 9.24753 43.7171C8.29722 41.327 7.75957 38.7863 7.6585 36.2081C5.13269 36.1032 2.64442 35.5462 0.306732 34.5623Z" fill="#6F9AFA"/>
<path d="M36.0347 22.8101L38.0964 21.0871C37.8688 20.7999 37.5403 20.6153 37.1812 20.5728C37.0023 20.5521 36.8211 20.5682 36.6483 20.6204C36.4756 20.6725 36.3148 20.7595 36.1755 20.8762C36.0334 20.9931 35.9156 21.1381 35.8292 21.3024C35.7429 21.4667 35.6896 21.6471 35.6727 21.8329C35.6557 22.0184 35.6764 22.2056 35.7335 22.3826C35.7907 22.5596 35.8829 22.7227 36.0046 22.8615L36.0347 22.8101Z" fill="#6F9AFA"/>
<path d="M24.8814 2.02127L4.49554 27.1252C4.82257 27.3061 5.10629 27.5589 5.32629 27.8655C5.54628 28.172 5.69707 28.5247 5.76778 28.898C5.8385 29.2713 5.82738 29.6561 5.73524 30.0245C5.64309 30.3929 5.47221 30.7358 5.23491 31.0285C4.9976 31.3212 4.69977 31.5565 4.36287 31.7174C4.02598 31.8782 3.6584 31.9606 3.28661 31.9587C2.91482 31.9568 2.54808 31.8705 2.2128 31.7062C1.87751 31.5418 1.58204 31.3035 1.34766 31.0083L0 32.6593C18.7666 41.4798 36.779 19.2355 24.8814 2.02127ZM25.3541 17.2863C25.2093 17.1347 25.1286 16.931 25.1293 16.7191C25.1301 16.5072 25.2122 16.3041 25.3581 16.1536C25.5039 16.0031 25.7017 15.9173 25.9089 15.9146C26.116 15.9119 26.3159 15.9926 26.4654 16.1393C26.6101 16.2909 26.6908 16.4946 26.6901 16.7065C26.6893 16.9184 26.6072 17.1215 26.4614 17.272C26.3155 17.4225 26.1177 17.5083 25.9106 17.511C25.7034 17.5137 25.5036 17.4329 25.3541 17.2863ZM23.8304 7.20046C24 7.02477 24.2168 6.90462 24.4532 6.85527C24.6897 6.80593 24.9352 6.82963 25.1585 6.92335C25.3818 7.01708 25.5728 7.1766 25.7072 7.38163C25.8416 7.58666 25.9134 7.82795 25.9134 8.07481C25.9134 8.32167 25.8416 8.56295 25.7072 8.76799C25.5728 8.97302 25.3818 9.13254 25.1585 9.22626C24.9352 9.31999 24.6897 9.34369 24.4532 9.29434C24.2168 9.245 24 9.12484 23.8304 8.94915C23.6068 8.71557 23.4816 8.40169 23.4816 8.07481C23.4816 7.74792 23.6068 7.43404 23.8304 7.20046ZM22.5431 21.7351C22.9022 22.0901 23.1499 22.5464 23.2544 23.0459C23.359 23.5453 23.3158 24.0653 23.1303 24.5396C22.9448 25.0138 22.6254 25.4208 22.2129 25.7087C21.8003 25.9966 21.3133 26.1523 20.8139 26.1559C20.3145 26.1596 19.8253 26.011 19.4088 25.7292C18.9922 25.4474 18.6672 25.0451 18.4751 24.5736C18.283 24.1021 18.2325 23.5828 18.3301 23.0818C18.4277 22.5809 18.6689 22.121 19.0231 21.7608C19.4898 21.2862 20.1198 21.0177 20.778 21.0128C21.4361 21.008 22.0698 21.2674 22.5431 21.7351ZM19.2192 14.9153C19.3296 15.0282 19.4048 15.172 19.4353 15.3287C19.4658 15.4853 19.4502 15.6477 19.3904 15.7953C19.3307 15.9428 19.2295 16.0689 19.0997 16.1577C18.9698 16.2464 18.8172 16.2938 18.661 16.2938C18.5049 16.2938 18.3522 16.2464 18.2224 16.1577C18.0926 16.0689 17.9914 15.9428 17.9316 15.7953C17.8719 15.6477 17.8562 15.4853 17.8867 15.3287C17.9172 15.172 17.9924 15.0282 18.1029 14.9153C18.2498 14.7658 18.4487 14.6818 18.656 14.6818C18.8633 14.6818 19.0622 14.7658 19.2091 14.9153H19.2192ZM14.9298 21.3185C15.0792 21.4693 15.1639 21.6745 15.1653 21.8891C15.1667 22.1037 15.0847 22.3101 14.9374 22.4629C14.79 22.6157 14.5893 22.7023 14.3795 22.7037C14.1697 22.7052 13.9679 22.6213 13.8185 22.4706C13.6729 22.3179 13.5914 22.113 13.5914 21.8997C13.5914 21.6864 13.6729 21.4815 13.8185 21.3288C13.965 21.1776 14.164 21.0917 14.3721 21.0898C14.5802 21.0879 14.7807 21.1701 14.9298 21.3185ZM13.4715 28.1795C13.6433 28.353 13.7608 28.5747 13.809 28.8166C13.8573 29.0585 13.8341 29.3095 13.7425 29.5379C13.6508 29.7663 13.4949 29.9616 13.2944 30.0991C13.094 30.2366 12.858 30.31 12.6167 30.31C12.3753 30.31 12.1394 30.2366 11.939 30.0991C11.7385 29.9616 11.5825 29.7663 11.4909 29.5379C11.3993 29.3095 11.3761 29.0585 11.4243 28.8166C11.4726 28.5747 11.5901 28.353 11.7618 28.1795C11.9896 27.9496 12.2967 27.8207 12.6167 27.8207C12.9367 27.8207 13.2438 27.9496 13.4715 28.1795Z" fill="#6F9AFA"/>
<path d="M29.6082 8.78456C30.8955 14.6272 28.7131 12.4362 34.4306 13.7272C34.901 13.0452 35.1209 12.2152 35.0516 11.3836C34.9823 10.552 34.6283 9.77214 34.0519 9.18137C33.4755 8.5906 32.7137 8.22686 31.9008 8.15427C31.0879 8.08168 30.276 8.30489 29.6082 8.78456Z" fill="#6F9AFA"/>
<path d="M9.23749 36.2029C9.35404 38.9012 9.98613 41.5501 11.0981 44L34.8329 23.8387C34.5769 23.5387 34.3823 23.1893 34.2604 22.8111C34.1386 22.4329 34.092 22.0336 34.1234 21.6367C34.1548 21.2398 34.2635 20.8534 34.4432 20.5002C34.623 20.147 34.87 19.8341 35.1698 19.5801C35.4689 19.3255 35.8148 19.1346 36.1872 19.0188C36.5595 18.903 36.9507 18.8646 37.3378 18.9058C37.7249 18.947 38.1 19.067 38.441 19.2588C38.782 19.4506 39.082 19.7102 39.3234 20.0224L41.0482 18.5566C37.8841 16.2203 34.1162 14.891 30.2167 14.7352C30.0859 26.0503 20.3506 36.0589 9.23749 36.2029ZM12.2546 39.7106C12.1435 39.5979 12.0676 39.4541 12.0365 39.2972C12.0055 39.1404 12.0207 38.9777 12.0802 38.8297C12.1397 38.6817 12.2409 38.5551 12.3709 38.4661C12.5009 38.377 12.6538 38.3295 12.8103 38.3295C12.9667 38.3295 13.1197 38.377 13.2497 38.4661C13.3797 38.5551 13.4808 38.6817 13.5404 38.8297C13.5999 38.9777 13.6151 39.1404 13.5841 39.2972C13.553 39.4541 13.4771 39.5979 13.3659 39.7106C13.2181 39.8604 13.0184 39.9444 12.8103 39.9444C12.6022 39.9444 12.4025 39.8604 12.2546 39.7106ZM31.3029 22.2957C31.414 22.4083 31.4899 22.5522 31.521 22.7091C31.552 22.8659 31.5368 23.0286 31.4773 23.1766C31.4177 23.3246 31.3166 23.4512 31.1866 23.5402C31.0566 23.6293 30.9037 23.6768 30.7472 23.6768C30.5907 23.6768 30.4378 23.6293 30.3078 23.5402C30.1778 23.4512 30.0767 23.3246 30.0171 23.1766C29.9576 23.0286 29.9424 22.8659 29.9734 22.7091C30.0045 22.5522 30.0804 22.4083 30.1915 22.2957C30.34 22.1471 30.5395 22.0639 30.7472 22.0639C30.9549 22.0639 31.1544 22.1471 31.3029 22.2957Z" fill="#6F9AFA"/>
<path d="M36.9349 14.4884L39.6553 9.95722L36.5728 8.07996C36.376 8.36858 36.1309 8.61931 35.8487 8.82058C36.3528 9.61261 36.6357 10.5305 36.6667 11.4751C36.6978 12.4197 36.4757 13.3549 36.0247 14.1798C36.3314 14.2775 36.6382 14.3701 36.9349 14.4832V14.4884Z" fill="#6F9AFA"/>
<path d="M43.5575 11.3407C43.3793 11.1512 43.1556 11.0129 42.9088 10.9396C42.7565 10.8961 42.6203 10.8071 42.5177 10.6839C42.4151 10.5608 42.3507 10.4092 42.3329 10.2484C42.3151 10.0877 42.3446 9.92511 42.4176 9.78161C42.4906 9.63811 42.6039 9.52017 42.7429 9.4429C42.9015 9.35918 43.0458 9.24976 43.1703 9.11888C43.4663 8.80706 43.6535 8.40411 43.7028 7.97245C43.7521 7.54079 43.6609 7.10454 43.4432 6.73131C43.2255 6.35808 42.8935 6.06871 42.4987 5.90805C42.1039 5.74739 41.6683 5.7244 41.2594 5.84266C41.1365 5.88122 41.0061 5.88826 40.8798 5.86314C40.7535 5.83803 40.6352 5.78154 40.5353 5.69865C40.4353 5.61755 40.3557 5.51312 40.3032 5.39412C40.2507 5.27511 40.2269 5.14498 40.2336 5.01461C40.2603 4.46224 40.1608 3.91111 39.943 3.40493C39.7252 2.89875 39.395 2.45146 38.9787 2.09854C38.5624 1.74562 38.0714 1.49678 37.5446 1.37178C37.0179 1.24677 36.47 1.24903 35.9442 1.37837C36.1299 2.1192 36.1055 2.89879 35.8738 3.62595C36.3106 3.96132 36.655 4.40667 36.8736 4.91861C37.0921 5.43055 37.1773 5.99165 37.1209 6.54728L41.1438 8.99544C41.2361 9.05031 41.3161 9.12448 41.3784 9.21311C41.4408 9.30173 41.4842 9.40281 41.5058 9.50976C41.5309 9.61422 41.535 9.72283 41.5177 9.82894C41.5004 9.93505 41.4621 10.0364 41.4053 10.1269L38.3881 15.1313C39.3551 15.5944 40.2879 16.129 41.179 16.7308C41.2584 16.6819 41.334 16.6268 41.4053 16.5662C41.6927 16.2712 41.8541 15.8717 41.8541 15.4553C41.8541 15.0388 41.6927 14.6393 41.4053 14.3444C41.2582 14.1914 41.1757 13.9854 41.1757 13.7709C41.1757 13.5563 41.2582 13.3504 41.4053 13.1974C42.0489 12.57 42.7429 13.2951 43.0295 13.902C43.2651 13.8083 43.4739 13.6554 43.6367 13.4575C43.7995 13.2597 43.9111 13.0231 43.9611 12.7696C44.0112 12.5162 43.9982 12.2539 43.9232 12.0069C43.8483 11.7599 43.7139 11.5361 43.5324 11.3562L43.5575 11.3407Z" fill="#6F9AFA"/>
<path d="M34.7625 7.61707C34.9005 7.54585 35.0262 7.45204 35.1346 7.33934C35.3153 7.15013 35.4475 6.91833 35.5198 6.66441C35.592 6.4105 35.602 6.1423 35.5488 5.88351C35.4956 5.62472 35.3809 5.38332 35.2148 5.18065C35.0487 4.97797 34.8364 4.82026 34.5966 4.72145C34.4893 4.6799 34.3921 4.61492 34.3118 4.53103C34.2315 4.44714 34.1701 4.34636 34.1318 4.23571C34.0935 4.12506 34.0793 4.00721 34.0901 3.89035C34.1009 3.7735 34.1364 3.66045 34.1943 3.55909C34.4811 3.06409 34.5813 2.47898 34.476 1.91374C34.3707 1.34851 34.0672 0.842062 33.6226 0.489587C33.1779 0.137112 32.6227 -0.0371198 32.0612 -0.00036368C31.4998 0.0363925 30.9708 0.281606 30.5737 0.689191C30.1815 1.04921 30.0709 1.76412 29.4423 1.71783C29.3199 1.71746 29.1993 1.68854 29.0895 1.63328C28.9797 1.57803 28.8836 1.49788 28.8087 1.39895C28.5163 1.11383 28.1257 0.958228 27.7218 0.965932C27.3179 0.973636 26.9332 1.14403 26.6514 1.4401C26.6062 1.49667 26.566 1.55839 26.5257 1.62011C27.6526 3.32867 28.5412 5.18955 29.1657 7.14904C30.0389 6.64773 31.0385 6.42446 32.0365 6.50785C33.0346 6.59123 33.9855 6.97747 34.7676 7.61707H34.7625Z" fill="#6F9AFA"/>
<path d="M21.4217 24.209C21.55 24.0782 21.6374 23.9114 21.673 23.7298C21.7085 23.5481 21.6905 23.3597 21.6213 23.1885C21.5522 23.0173 21.4349 22.871 21.2843 22.768C21.1337 22.665 20.9567 22.61 20.7756 22.61C20.5944 22.61 20.4174 22.665 20.2668 22.768C20.1162 22.871 19.9989 23.0173 19.9298 23.1885C19.8606 23.3597 19.8426 23.5481 19.8781 23.7298C19.9137 23.9114 20.0011 24.0782 20.1294 24.209C20.3009 24.3839 20.5333 24.4822 20.7756 24.4822C21.0178 24.4822 21.2502 24.3839 21.4217 24.209Z" fill="#6F9AFA"/>
</g>
<defs>
<clipPath id="clip0_1_123">
<rect width="44" height="44" fill="white"/>
</clipPath>
</defs>
</svg>
