<svg width="49" height="47" viewBox="0 0 49 47" fill="none" xmlns="http://www.w3.org/2000/svg">
<path fill-rule="evenodd" clip-rule="evenodd" d="M0.240191 38.9178C0.425645 39.1022 0.6111 39.2867 0.920191 39.2867C1.16746 39.2867 1.35292 39.2252 1.53837 39.0407L7.34928 32.8926V32.8311V29.6341C7.34928 29.5111 7.22565 29.5111 7.16383 29.5726L0.178372 37.8111C-0.0689003 38.1185 -0.0689001 38.6104 0.240191 38.9178ZM21.9384 19.6126C21.4438 19.8585 20.7638 20.043 20.0838 20.1044C19.1566 20.1659 18.662 20.043 17.8584 20.043C17.302 20.1044 16.8075 20.1659 16.4366 20.3504C16.1893 20.4733 15.8802 20.6578 15.8802 20.7807C15.8802 20.9037 16.2511 21.1496 16.4984 21.2726C16.8075 21.3956 17.1166 21.5185 17.5493 21.5185C19.0947 21.703 20.5784 21.5185 21.7529 21.1496C23.5456 20.5963 24.9056 19.3667 23.2984 18.137C23.2366 18.0756 23.1747 18.137 23.1129 18.1985C23.0511 18.8133 22.5566 19.3052 21.9384 19.6126ZM20.0838 17.0304C20.5166 17.0919 20.8875 17.1533 21.1347 17.2763C21.382 17.3993 21.7529 17.6452 21.7529 17.7681C21.7529 17.8911 21.5056 18.0756 21.2584 18.1985C20.8875 18.383 20.4547 18.5059 19.9602 18.5059C19.2184 18.5674 18.662 18.4444 17.7966 18.4444C16.4984 18.5059 14.8293 19.0593 14.4584 20.2889C14.4584 20.3504 14.3347 20.4119 14.2729 20.3504C12.6656 19.1207 14.0256 17.9526 15.8184 17.3378C17.0547 17.0304 18.5384 16.8459 20.0838 17.0304ZM4.87655 45.9267C4.56746 45.5578 4.62928 45.0044 5.00019 44.697L46.1093 8.54593C46.6038 8.11556 47.3456 8.23852 47.7166 8.79185L48.7056 10.5133C49.262 11.497 49.0147 12.7267 48.1493 13.403L6.29837 46.2341C6.11292 46.4185 5.86565 46.48 5.61837 46.4185C5.24746 46.357 5.06201 46.1726 4.87655 45.9267ZM18.7856 14.1407C24.2256 14.1407 28.6766 16.5385 28.6766 19.4896V21.8259C28.6766 21.8874 28.6766 21.8874 28.6147 21.8874L10.5638 37.7496C10.502 37.8111 10.4402 37.8111 10.4402 37.7496C9.51292 36.9504 8.95655 35.9667 8.95655 34.9215V19.4281C8.89474 16.5385 13.3456 14.1407 18.7856 14.1407ZM18.7856 15.6778C20.7638 15.6778 22.9893 16.0467 24.782 16.9074C25.6475 17.3378 26.9456 18.1985 27.0693 19.2437C27.2547 20.3504 26.0802 21.2111 25.2766 21.703C21.8766 23.7319 16.0656 23.6704 12.7275 22.0104C11.9238 21.58 10.5638 20.7807 10.4402 19.6741C10.2547 18.4444 11.8002 17.3993 12.7275 16.9074C14.582 15.9852 16.8075 15.6778 18.7856 15.6778ZM28.6766 34.9215V30.8022C28.6766 30.7407 28.5529 30.6793 28.4911 30.7407L16.7456 39.963C16.6838 40.0244 16.6838 40.1474 16.8075 40.1474C17.4256 40.2089 18.1056 40.2704 18.7856 40.2704C24.2256 40.2704 28.6766 37.8726 28.6766 34.9215ZM25.5238 13.7719L34.4256 4.42667C35.1056 3.68889 35.1675 2.58222 34.5493 1.78296L33.4366 0.368889C33.0656 -0.122963 32.3856 -0.122963 32.0147 0.368889L21.5675 12.6652C21.5056 12.7267 21.5675 12.8496 21.6293 12.8496C22.9275 13.0341 24.2256 13.403 25.4002 13.8948C25.462 13.8333 25.5238 13.8333 25.5238 13.7719Z" fill="#6F9AFA"/>
</svg>
